<mxfile host="app.diagrams.net" modified="2024-07-18T01:47:39.085Z" agent="Mozilla/5.0 (X11; Linux x86_64) AppleWebKit/537.36 (KHTML, like Gecko) Chrome/125.0.0.0 Safari/537.36" etag="DMvqAIBFYexMD_qXwJbW" version="24.7.1" type="github">
  <diagram name="Page-1" id="MuEACOxSNlfk1q1UW1Hp">
    <mxGraphModel dx="1434" dy="752" grid="1" gridSize="10" guides="1" tooltips="1" connect="1" arrows="1" fold="1" page="1" pageScale="1" pageWidth="850" pageHeight="1100" math="0" shadow="0">
      <root>
        <mxCell id="0" />
        <mxCell id="1" parent="0" />
        <mxCell id="CzftKbd7wnQQriZC1NXK-1" value="Features chosen&amp;nbsp;&lt;div&gt;based on variance&lt;/div&gt;&lt;div&gt;threshold&lt;/div&gt;" style="rounded=0;whiteSpace=wrap;html=1;" vertex="1" parent="1">
          <mxGeometry x="180" y="120" width="160" height="80" as="geometry" />
        </mxCell>
        <mxCell id="CzftKbd7wnQQriZC1NXK-7" style="edgeStyle=orthogonalEdgeStyle;rounded=0;orthogonalLoop=1;jettySize=auto;html=1;entryX=1;entryY=0.75;entryDx=0;entryDy=0;" edge="1" parent="1" source="CzftKbd7wnQQriZC1NXK-2" target="CzftKbd7wnQQriZC1NXK-3">
          <mxGeometry relative="1" as="geometry" />
        </mxCell>
        <mxCell id="CzftKbd7wnQQriZC1NXK-2" value="Outcome of the match" style="rounded=0;whiteSpace=wrap;html=1;" vertex="1" parent="1">
          <mxGeometry x="430" y="120" width="160" height="80" as="geometry" />
        </mxCell>
        <mxCell id="CzftKbd7wnQQriZC1NXK-8" style="edgeStyle=orthogonalEdgeStyle;rounded=0;orthogonalLoop=1;jettySize=auto;html=1;entryX=0.5;entryY=0;entryDx=0;entryDy=0;" edge="1" parent="1" source="CzftKbd7wnQQriZC1NXK-3" target="CzftKbd7wnQQriZC1NXK-5">
          <mxGeometry relative="1" as="geometry" />
        </mxCell>
        <mxCell id="CzftKbd7wnQQriZC1NXK-3" value="Extracting coefficients from linear support vector&amp;nbsp;&lt;div&gt;classifier&lt;/div&gt;" style="rounded=0;whiteSpace=wrap;html=1;" vertex="1" parent="1">
          <mxGeometry x="300" y="260" width="160" height="100" as="geometry" />
        </mxCell>
        <mxCell id="CzftKbd7wnQQriZC1NXK-5" value="Calculating player rating based on the coefficients of features" style="rounded=0;whiteSpace=wrap;html=1;" vertex="1" parent="1">
          <mxGeometry x="300" y="440" width="160" height="100" as="geometry" />
        </mxCell>
        <mxCell id="CzftKbd7wnQQriZC1NXK-6" style="edgeStyle=orthogonalEdgeStyle;rounded=0;orthogonalLoop=1;jettySize=auto;html=1;entryX=0;entryY=0.62;entryDx=0;entryDy=0;entryPerimeter=0;" edge="1" parent="1" source="CzftKbd7wnQQriZC1NXK-1" target="CzftKbd7wnQQriZC1NXK-3">
          <mxGeometry relative="1" as="geometry" />
        </mxCell>
      </root>
    </mxGraphModel>
  </diagram>
</mxfile>
